Coordinates
version=1
nRows=10
nColumns=40
inDegrees=yes

Units are S.I. units (second, meters, Newtons, ...)
Angles are in degrees.

endheader
time	pelvis_tilt	pelvis_list	pelvis_rotation	pelvis_tx	pelvis_ty	pelvis_tz	hip_flexion_r	hip_adduction_r	hip_rotation_r	knee_angle_r	knee_angle_r_beta	ankle_angle_r	subtalar_angle_r	mtp_angle_r	hip_flexion_l	hip_adduction_l	hip_rotation_l	knee_angle_l	knee_angle_l_beta	ankle_angle_l	subtalar_angle_l	mtp_angle_l	lumbar_extension	lumbar_bending	lumbar_rotation	arm_flex_r	arm_add_r	arm_rot_r	elbow_flex_r	pro_sup_r	wrist_flex_r	wrist_dev_r	arm_flex_l	arm_add_l	arm_rot_l	elbow_flex_l	pro_sup_l	wrist_flex_l	wrist_dev_l
      2.11000000	     -2.95787382	     -2.44615056	      3.07376879	      0.33916014	      0.87994810	      1.47493673	     -3.72650315	      2.44554930	    -12.34677767	    -23.57192780	     -0.41140775	     11.33550046	      2.24855334	     -8.35060647	     34.01425247	      6.49325112	     15.91338095	    -23.81691497	     -0.41568358	      2.66902670	      2.92169763	     -3.39587894	     -2.86196532	      0.77731835	      0.45891127	      1.60844559	    -10.22543217	    -12.08165249	     41.08554344	     89.95437384	      0.00000000	      0.00000000	     -9.68733776	      6.19684719	     20.19736646	     20.18262513	     89.95437384	      0.00000000	      0.00000000
      2.12000000	     -3.08215213	     -2.48369660	      3.02751074	      0.34954882	      0.87878431	      1.47327703	     -4.00553084	      2.31196111	    -12.07710812	    -24.13761736	     -0.42128090	     11.00214872	      2.16588548	     -8.18223718	     34.16656817	      6.31373199	     15.62268206	    -24.03246973	     -0.41944572	      2.53836016	      2.82056421	     -3.32914059	     -2.63364441	      0.69709542	      0.50363882	      1.47191022	    -10.21662206	    -12.03699539	     41.26767067	     89.95437384	      0.00000000	      0.00000000	    -10.05844269	      6.23991169	     20.13118870	     20.31457424	     89.95437384	      0.00000000	      0.00000000
      2.13000000	     -3.19626317	     -2.50408917	      2.96645116	      0.36020937	      0.87768189	      1.47165997	     -4.27089127	      2.18824952	    -11.73200209	    -24.77641594	     -0.43243003	     10.62420635	      2.09139714	     -8.00863287	     34.15528002	      6.11708891	     15.26616168	    -24.34898002	     -0.42496987	      2.42343089	      2.74814278	     -3.26166367	     -2.37368770	      0.58294617	      0.51540590	      1.30001375	    -10.14880492	    -11.98653096	     41.42261485	     89.95437384	      0.00000000	      0.00000000	    -10.41240444	      6.26728729	     20.04260188	     20.41145560	     89.95437384	      0.00000000	      0.00000000
      2.14000000	     -2.88042884	     -2.14342618	      2.55512763	      0.37062595	      0.87747269	      1.47018852	     -4.77788225	      1.69598886	    -10.48490529	    -25.81190767	     -0.45050278	     10.06062545	      1.17773387	     -7.74725762	     33.38747797	      5.51346848	     14.43934306	    -24.62833671	     -0.42984556	      2.88772874	      4.42667943	     -3.28380594	     -2.70199404	      0.09088539	      1.02271094	      1.27748965	     -9.98550526	    -12.39999978	     41.43028662	     89.95437384	      0.00000000	      0.00000000	    -10.10763275	      6.39299846	     19.73697359	     19.64596990	     89.95437384	      0.00000000	      0.00000000
      2.15000000	     -3.01658159	     -2.17332360	      2.46804573	      0.38215073	      0.87619920	      1.46852809	     -5.02606865	      1.56631179	    -10.19354190	    -26.46525361	     -0.46190581	      9.66966080	      1.12513326	     -7.56616174	     33.16937593	      5.32805711	     13.93507140	    -25.16522610	     -0.43921605	      2.64216005	      4.33390893	     -3.19766384	     -2.28390782	     -0.02613939	      1.03437666	      0.92929528	     -9.92329110	    -12.33826335	     41.54861745	     89.95437384	      0.00000000	      0.00000000	    -10.56599856	      6.45693605	     19.67710260	     19.85757803	     89.95437384	      0.00000000	      0.00000000
      2.16000000	     -2.98745494	     -2.15366472	      2.48559596	      0.39223810	      0.87530872	      1.46668091	     -5.07836979	      1.56537577	     -9.22916303	    -27.65590723	     -0.48268664	      8.68397196	     -0.54427577	     -7.04733605	     33.16593799	      4.63191729	     11.91541629	    -26.31278108	     -0.45924467	      1.86850097	      8.68627482	     -2.47578194	     -2.31295637	     -0.19935669	      1.03709006	      0.86989014	     -9.75709275	    -12.59364656	     41.52649474	     89.95437384	      0.00000000	      0.00000000	    -10.42662326	      6.56055927	     19.59395737	     19.61204132	     89.95437384	      0.00000000	      0.00000000
      2.17000000	     -2.88031468	     -2.13215709	      2.51419974	      0.40322206	      0.87450777	      1.46484335	     -5.26194700	      1.42109964	     -8.75392164	    -28.85214940	     -0.50356500	      7.98231249	     -0.64091482	     -6.80483303	     32.97733400	      4.42836403	     11.35006396	    -27.29447048	     -0.47637838	      1.06661860	      8.74616434	     -2.27889131	     -2.29860957	     -0.39082683	      0.91050823	      0.67773533	     -9.63071325	    -12.55748575	     41.55067243	     89.95437384	      0.00000000	      0.00000000	    -10.68165059	      6.63647155	     19.41916202	     19.85707100	     89.95437384	      0.00000000	      0.00000000
      2.18000000	     -3.17246929	     -2.06890046	      2.53961974	      0.41339568	      0.87357547	      1.46275168	     -4.60969826	      1.20321384	     -8.31216589	    -30.61019563	     -0.53424870	      6.61611560	     -2.25458320	     -6.19452116	     33.29154139	      3.89555854	      9.95153059	    -28.07529529	     -0.49000634	     -0.03810193	     11.28306577	     -1.68754818	     -1.87342838	     -0.61519142	      0.87542689	      0.57307122	     -9.43385607	    -12.81800140	     41.24798088	     89.95437384	      0.00000000	      0.00000000	    -10.57969993	      6.74188732	     19.22602738	     19.65683755	     89.95437384	      0.00000000	      0.00000000
      2.19000000	     -2.96527053	     -1.94123374	      2.62031207	      0.42420677	      0.87350244	      1.46053187	     -4.47217899	      0.86842896	     -8.20603046	    -32.43588007	     -0.56611290	      5.37282461	     -2.58008498	     -5.82834847	     33.07535805	      3.66001893	      9.42841985	    -29.15183658	     -0.50879553	     -0.84759762	     11.12604736	     -1.50030520	     -2.00421151	     -0.88819292	      0.71165981	      0.49191850	     -9.26724721	    -12.86915924	     40.96877033	     89.95437384	      0.00000000	      0.00000000	    -10.59248013	      6.84319208	     18.97463569	     19.76387581	     89.95437384	      0.00000000	      0.00000000
      2.20000000	     -3.20144149	     -1.54212256	      2.75211676	      0.43479407	      0.87308210	      1.45783096	     -3.67857257	      0.13295737	     -8.54641013	    -34.54367291	     -0.60290083	      3.41667908	     -3.81003752	     -5.03284972	     33.28083763	      2.94867606	      8.82465501	    -30.19692105	     -0.52703570	     -1.01030931	     12.28587782	     -1.09209060	     -1.63436072	     -1.44865883	      0.53983589	      0.25667286	     -8.98734994	    -13.24704010	     40.67687901	     89.95437384	      0.00000000	      0.00000000	    -10.47797748	      6.94260166	     18.99751294	     19.64288518	     89.95437384	      0.00000000	      0.00000000
